<svg xmlns="http://www.w3.org/2000/svg" viewBox="0 0 500 80"><path d="M60.133 0h16.91L46.795 79.78h-16.79L0 0h17.147l16.91 48.82c1.308 4.168 3.69 10.718 4.643 14.647h.237c.953-3.81 3.216-10.36 4.764-14.646L60.135 0zm82.163 0v13.812H101.69V30.84h37.867v13.813H101.69v21.315h41.2V79.78H85.855V0h56.442zm29.77 79.78h-15.838V0h31.198c18.933 0 27.03 12.86 27.03 25.72 0 12.384-6.906 21.553-18.337 24.292l23.336 28.577v1.19h-17.504l-29.888-36.914V79.78zm0-56.68l14.407 15.838c7.026-.596 12.146-5.478 12.146-13.218 0-6.668-4.17-11.907-13.338-11.907h-13.218V23.1zm57.514 56.68V0h15.837v79.78H229.58zM317.22 0v13.812H278.4V30.96h35.96v13.693H278.4V79.78h-15.836V0h54.655zm12.145 79.78V0h15.837v79.78h-15.837zM418.79 0v13.812h-40.605V30.84h37.867v13.813h-37.867v21.315h41.2V79.78H362.35V0h56.44zm39.296 0C488.57 0 500 19.17 500 40.128c0 25.602-14.646 39.653-41.795 39.653h-25.482V0h25.363zm-9.884 13.813v52.155h10.48c16.312 0 25.48-6.788 25.48-25.84 0-18.576-9.882-26.315-25.48-26.315H448.2z"/></svg>